<svg viewBox="0 0 200 60" xmlns="http://www.w3.org/2000/svg">
  <!-- Brain icon -->
  <g transform="translate(10, 15)">
    <!-- Main brain shape -->
    <path d="M15 5 C20 2, 25 2, 30 5 C32 3, 35 3, 37 5 C39 3, 42 3, 44 5 C46 7, 46 10, 44 12 C46 14, 46 17, 44 19 C46 21, 46 24, 44 26 C42 28, 39 28, 37 26 C35 28, 32 28, 30 26 C25 29, 20 29, 15 26 C13 28, 10 28, 8 26 C6 24, 6 21, 8 19 C6 17, 6 14, 8 12 C6 10, 6 7, 8 5 C10 3, 13 3, 15 5 Z" 
          fill="#7c3aed" 
          stroke="#7c3aed" 
          stroke-width="1"/>
    
    <!-- Brain folds/details -->
    <path d="M12 10 Q18 8, 24 10 M12 15 Q18 13, 24 15 M12 20 Q18 18, 24 20" 
          stroke="#6d28d9" 
          stroke-width="1.5" 
          fill="none"/>
    
    <path d="M28 10 Q34 8, 40 10 M28 15 Q34 13, 40 15 M28 20 Q34 18, 40 20" 
          stroke="#6d28d9" 
          stroke-width="1.5" 
          fill="none"/>
    
    <!-- Central division -->
    <path d="M26 8 Q26 15, 26 22" 
          stroke="#6d28d9" 
          stroke-width="2" 
          fill="none"/>
  </g>
  
  <!-- MyAibo text -->
  <text x="70" y="38" 
        font-family="Arial, sans-serif" 
        font-size="24" 
        font-weight="bold" 
        fill="#7c3aed">MyAibo</text>
</svg>
